<?xml version="1.0" standalone="no"?>
<!DOCTYPE svg PUBLIC "-//W3C//DTD SVG 20010904//EN"
 "http://www.w3.org/TR/2001/REC-SVG-20010904/DTD/svg10.dtd">
<svg version="1.0" xmlns="http://www.w3.org/2000/svg"
 width="512.000000pt" height="512.000000pt" viewBox="0 0 512.000000 512.000000"
 preserveAspectRatio="xMidYMid meet">
<metadata>
Created by potrace 1.11, written by Peter Selinger 2001-2013
</metadata>
<g transform="translate(0.000000,512.000000) scale(0.100000,-0.100000)"
fill="#000000" stroke="none">
<path d="M420 5067 c-57 -30 -90 -89 -85 -152 7 -87 62 -143 148 -152 150 -14
237 150 142 269 -48 60 -131 74 -205 35z"/>
<path d="M2517 5037 c-30 -10 -127 -101 -477 -451 -357 -357 -441 -435 -446
-420 -14 44 -30 67 -56 80 -15 8 -30 14 -33 14 -34 -1 -34 -1 -21 38 39 109
-26 227 -142 256 -44 11 -47 14 -58 59 -27 107 -86 182 -178 227 -163 80 -352
25 -448 -130 -11 -18 -31 -29 -68 -37 -68 -16 -112 -50 -140 -109 -27 -58 -23
-135 9 -187 43 -70 139 -110 214 -89 31 9 40 7 69 -15 64 -48 131 -71 216 -72
30 -1 41 -5 36 -13 -4 -6 -8 -156 -8 -334 l-1 -323 -299 -299 c-165 -165 -303
-310 -308 -322 -18 -48 -4 -75 79 -156 55 -54 90 -68 132 -53 15 6 106 90 204
187 l177 177 0 -302 0 -302 -29 -15 c-16 -9 -31 -23 -33 -33 -8 -30 -3 -307 6
-321 4 -7 19 -17 32 -22 24 -9 24 -12 24 -137 l0 -128 -355 0 c-346 0 -355 -1
-375 -21 -23 -22 -149 -418 -150 -466 0 -27 19 -52 54 -73 15 -9 17 -40 17
-351 l-1 -342 -39 -42 c-43 -46 -88 -131 -106 -201 -15 -54 -12 -176 4 -236
l11 -41 78 -4 c156 -6 4958 -2 4969 5 33 20 50 251 24 332 -28 90 -81 186
-128 233 -13 14 -15 67 -13 472 0 142 3 166 17 175 35 21 53 46 53 73 0 48
-127 443 -149 466 -21 20 -30 21 -374 21 l-352 0 -3 128 -3 127 26 10 c14 5
29 20 34 32 10 27 7 295 -3 319 -4 9 -18 21 -32 27 l-24 12 0 302 0 303 178
-177 c97 -97 188 -181 203 -187 42 -15 77 -1 133 53 58 55 84 92 81 116 -1 8
-3 24 -3 35 -3 30 -2079 2110 -2125 2130 -42 17 -49 18 -100 2z"/>
</g>
</svg>
